<svg xmlns="http://www.w3.org/2000/svg" width="2400" height="2440" viewBox="0 0 2400 2440" role="img" aria-labelledby="title desc">
  <title id="title">Merge Quest: camadas, interações, cardinalidades e desacoplamento</title>
  <desc id="desc">Prancha técnica detalhada da arquitetura Merge Quest com React, Vite, Phaser 4, game-core, Fastify, Drizzle, Supabase, OpenAI, Railway e Vercel.</desc>
  <defs>
    <linearGradient id="bg" x1="0" y1="0" x2="1" y2="1"><stop stop-color="#0B1016"/><stop offset="1" stop-color="#111923"/></linearGradient>
    <marker id="arr" markerWidth="9" markerHeight="9" refX="8" refY="4.5" orient="auto"><path d="M0 0L9 4.5L0 9Z" fill="#8799AB"/></marker>
    <marker id="arrCyan" markerWidth="9" markerHeight="9" refX="8" refY="4.5" orient="auto"><path d="M0 0L9 4.5L0 9Z" fill="#D6DEE7"/></marker>
    <style>
      .bg{fill:url(#bg)}.panel{fill:#111923;stroke:#53687D;stroke-width:2;rx:18}.band{fill:#182331;stroke:#60758B;stroke-width:2;rx:14}
      .node{fill:#223043;stroke:#70859C;stroke-width:2;rx:12}.domain{fill:#435D79;stroke:#AEBECD}.app{fill:#30445C;stroke:#91A4B7}.infra{fill:#27374A;stroke:#8194A7}.contract{fill:#2A3B50;stroke:#8FA1B3}.external{fill:#354B65;stroke:#9DAFC0}
      .txt{font-family:Inter,Segoe UI,Arial,sans-serif;fill:#F4F7FA}.title{font-size:32px;font-weight:700}.section{font-size:23px;font-weight:700}.head{font-size:18px;font-weight:700}.body{font-size:14px}.small{font-size:12px;fill:#B6C1CC}.mono{font-family:Consolas,monospace;font-size:12px;fill:#DDE5ED}.num{font-size:16px;font-weight:700;fill:#0B1016}
      .line{fill:none;stroke:#8799AB;stroke-width:2.5;marker-end:url(#arr)}.flow{fill:none;stroke:#D6DEE7;stroke-width:3;marker-end:url(#arrCyan)}.dash{stroke-dasharray:8 7}.thin{stroke-width:1.5}.forbid{stroke:#A7B5C3;stroke-width:3}.ok{fill:#D6DEE7}.warn{fill:#AAB9C7}.badge{fill:#D6DEE7}.divider{stroke:#53687D;stroke-width:1.5}.cardinality{font-family:Consolas,monospace;font-size:13px;font-weight:700;fill:#D6DEE7}
    </style>
  </defs>
  <rect width="2400" height="2440" class="bg"/>
  <text x="60" y="54" class="txt title">Merge Quest: como as partes interagem sem ficarem acopladas</text>
  <text x="60" y="82" class="txt small">Leitura: setas sólidas = dependência permitida; tracejadas = dados em runtime; números = exemplos; cardinalidades mostram quantos elementos participam.</text>

  <!-- 1. CAMADAS -->
  <rect x="45" y="110" width="2310" height="735" class="panel"/>
  <text x="70" y="148" class="txt section">1 · Camadas e direção das dependências</text>
  <text x="70" y="174" class="txt small">A dependência de código sempre aponta para dentro. Frameworks e serviços externos podem ser substituídos sem reescrever o domínio.</text>

  <rect x="70" y="200" width="390" height="590" class="band"/>
  <text x="95" y="235" class="txt head">ENTREGA / BUILD</text>
  <rect x="95" y="265" width="340" height="90" class="node contract"/><text x="265" y="300" text-anchor="middle" class="txt head">Vite + Turborepo</text><text x="265" y="326" text-anchor="middle" class="txt body">compila apps/web + packages</text>
  <rect x="95" y="390" width="340" height="90" class="node contract"/><text x="265" y="425" text-anchor="middle" class="txt head">Vercel</text><text x="265" y="451" text-anchor="middle" class="txt body">serve HTML, JS, sprites e áudio</text>
  <rect x="95" y="515" width="340" height="90" class="node contract"/><text x="265" y="550" text-anchor="middle" class="txt head">Railway</text><text x="265" y="576" text-anchor="middle" class="txt body">executa o processo Fastify</text>
  <text x="95" y="650" class="txt body">Cardinalidade de deploy</text><text x="95" y="678" class="txt mono">1 monorepo → 1 web Vercel</text><text x="95" y="701" class="txt mono">1 monorepo → 1..N APIs Railway</text><text x="95" y="724" class="txt mono">1 API → 1 projeto Supabase</text>

  <rect x="485" y="200" width="430" height="590" class="band"/>
  <text x="510" y="235" class="txt head">APRESENTAÇÃO · adaptadores de entrada</text>
  <rect x="510" y="265" width="380" height="100" class="node"/><text x="700" y="301" text-anchor="middle" class="txt head">React</text><text x="700" y="327" text-anchor="middle" class="txt body">telas, formulários, HUD, overlays</text><text x="700" y="348" text-anchor="middle" class="txt small">não calcula combate ou veredito</text>
  <rect x="510" y="405" width="380" height="100" class="node"/><text x="700" y="441" text-anchor="middle" class="txt head">Phaser 4</text><text x="700" y="467" text-anchor="middle" class="txt body">cenas, input, câmera, som, animação</text><text x="700" y="488" text-anchor="middle" class="txt small">não é fonte oficial do estado</text>
  <rect x="510" y="545" width="380" height="100" class="node"/><text x="700" y="581" text-anchor="middle" class="txt head">Fastify controllers</text><text x="700" y="607" text-anchor="middle" class="txt body">HTTP ↔ comandos / view models</text><text x="700" y="628" text-anchor="middle" class="txt small">Zod valida na fronteira</text>
  <text x="510" y="686" class="txt mono">1 React shell → 0..1 Phaser.Game</text><text x="510" y="709" class="txt mono">1 Phaser.Game → 1..N Scenes</text><text x="510" y="732" class="txt mono">1 endpoint → 1 caso de uso</text>

  <rect x="940" y="200" width="430" height="590" class="band"/>
  <text x="965" y="235" class="txt head">APLICAÇÃO · orquestração</text>
  <rect x="965" y="265" width="380" height="120" class="node app"/><text x="1155" y="303" text-anchor="middle" class="txt head">Casos de uso</text><text x="1155" y="330" text-anchor="middle" class="txt body">StartRun · SubmitAnswer · SaveCheckpoint</text><text x="1155" y="354" text-anchor="middle" class="txt small">coordena domínio e portas; não conhece SDK</text>
  <rect x="965" y="430" width="380" height="130" class="node contract"/><text x="1155" y="468" text-anchor="middle" class="txt head">Portas internas</text><text x="1155" y="495" text-anchor="middle" class="txt mono">RunRepository</text><text x="1155" y="517" text-anchor="middle" class="txt mono">AuthGateway · AiGateway</text><text x="1155" y="541" text-anchor="middle" class="txt small">interfaces definidas pela aplicação</text>
  <rect x="965" y="605" width="380" height="100" class="node contract"/><text x="1155" y="641" text-anchor="middle" class="txt head">Contracts versionados</text><text x="1155" y="667" text-anchor="middle" class="txt body">DTOs · Zod schemas · IDs · eventos</text><text x="1155" y="688" text-anchor="middle" class="txt small">forma estável da comunicação</text>
  <text x="965" y="750" class="txt mono">1 caso de uso → 0..N portas</text>

  <rect x="1395" y="200" width="430" height="590" class="band"/>
  <text x="1420" y="235" class="txt head">DOMÍNIO · centro estável</text>
  <rect x="1420" y="265" width="380" height="145" class="node domain"/><text x="1610" y="303" text-anchor="middle" class="txt head">game-core</text><text x="1610" y="331" text-anchor="middle" class="txt body">GameState + entidades + value objects</text><text x="1610" y="356" text-anchor="middle" class="txt body">regras de combate, progressão e veredito</text><text x="1610" y="382" text-anchor="middle" class="txt small">TypeScript puro · determinístico · testável</text>
  <rect x="1420" y="455" width="380" height="145" class="node domain"/><text x="1610" y="493" text-anchor="middle" class="txt head">Motor determinístico</text><text x="1610" y="521" text-anchor="middle" class="txt mono">execute(state, command)</text><text x="1610" y="545" text-anchor="middle" class="txt mono">→ { state, events }</text><text x="1610" y="571" text-anchor="middle" class="txt small">mesma entrada = mesma saída</text>
  <text x="1420" y="653" class="txt mono">1 GameState → 1 Run</text><text x="1420" y="676" class="txt mono">1 comando → 1 novo estado</text><text x="1420" y="699" class="txt mono">1 comando → 0..N eventos</text><text x="1420" y="722" class="txt mono">1 snapshot → 1 ponto de replay</text>

  <rect x="1850" y="200" width="480" height="590" class="band"/>
  <text x="1875" y="235" class="txt head">INFRAESTRUTURA · adaptadores de saída</text>
  <rect x="1875" y="265" width="205" height="115" class="node infra"/><text x="1977" y="302" text-anchor="middle" class="txt head">Drizzle</text><text x="1977" y="328" text-anchor="middle" class="txt body">RunRepository</text><text x="1977" y="351" text-anchor="middle" class="txt small">rows ↔ entities</text>
  <rect x="2100" y="265" width="205" height="115" class="node infra"/><text x="2202" y="302" text-anchor="middle" class="txt head">Supabase Auth</text><text x="2202" y="328" text-anchor="middle" class="txt body">AuthGateway</text><text x="2202" y="351" text-anchor="middle" class="txt small">JWT ↔ user ID</text>
  <rect x="1875" y="420" width="205" height="115" class="node external"/><text x="1977" y="457" text-anchor="middle" class="txt head">OpenAI SDK</text><text x="1977" y="483" text-anchor="middle" class="txt body">AiGateway</text><text x="1977" y="506" text-anchor="middle" class="txt small">prompt ↔ schema</text>
  <rect x="2100" y="420" width="205" height="115" class="node infra"/><text x="2202" y="457" text-anchor="middle" class="txt head">Telemetry</text><text x="2202" y="483" text-anchor="middle" class="txt body">TelemetryPort</text><text x="2202" y="506" text-anchor="middle" class="txt small">eventos observáveis</text>
  <rect x="1875" y="585" width="430" height="100" class="node infra"/><text x="2090" y="621" text-anchor="middle" class="txt head">PostgreSQL / Supabase</text><text x="2090" y="647" text-anchor="middle" class="txt body">dados, constraints, migrations e RLS</text><text x="2090" y="668" text-anchor="middle" class="txt small">acessado pela API; nunca pelo game-core</text>
  <text x="1875" y="732" class="txt mono">1 porta → 1 adapter ativo</text><text x="1875" y="755" class="txt mono">1 adapter → 1 serviço externo</text>

  <!-- dependency arrows -->
  <path d="M510 315H460" class="line"/><path d="M510 455H460" class="line"/><path d="M510 595H460" class="line"/>
  <path d="M940 325H890" class="line"/><path d="M940 495H890" class="line"/><path d="M1395 337H1345" class="line"/><path d="M1395 527H1345" class="line"/>
  <path d="M1875 322H1345" class="line dash thin"/><path d="M1875 477H1345" class="line dash thin"/>
  <text x="828" y="303" class="txt cardinality">N:1</text><text x="1280" y="312" class="txt cardinality">N:1</text><text x="1722" y="308" class="txt cardinality">adapter implementa porta</text>
  <path d="M1580 750H1580" class="forbid"/><text x="1420" y="772" class="txt small">PROIBIDO: domínio → framework / banco / rede / SDK</text>

  <!-- 2. RUNTIME FLOWS -->
  <rect x="45" y="875" width="2310" height="555" class="panel"/>
  <text x="70" y="913" class="txt section">2 · Exemplos de interação em runtime</text>
  <text x="70" y="939" class="txt small">As linhas cruzam fronteiras por mensagens tipadas. Objetos de framework não atravessam camadas.</text>

  <!-- flow A -->
  <rect x="70" y="965" width="720" height="420" class="band"/>
  <circle cx="103" cy="1000" r="16" class="badge"/><text x="103" y="1006" text-anchor="middle" class="txt num">A</text><text x="132" y="1007" class="txt head">Turno de combate local</text>
  <rect x="95" y="1035" width="185" height="65" class="node"/><text x="187" y="1064" text-anchor="middle" class="txt head">Phaser input</text><text x="187" y="1086" text-anchor="middle" class="txt small">clique na carta</text>
  <rect x="330" y="1035" width="200" height="65" class="node contract"/><text x="430" y="1064" text-anchor="middle" class="txt mono">PlayCardCommand</text><text x="430" y="1086" text-anchor="middle" class="txt small">cardId + targetId</text>
  <rect x="580" y="1035" width="180" height="65" class="node domain"/><text x="670" y="1064" text-anchor="middle" class="txt head">game-core</text><text x="670" y="1086" text-anchor="middle" class="txt small">valida + calcula</text>
  <path d="M280 1067H330" class="flow"/><path d="M530 1067H580" class="flow"/><text x="286" y="1054" class="txt cardinality">1:1</text><text x="536" y="1054" class="txt cardinality">1:1</text>
  <rect x="95" y="1155" width="200" height="75" class="node contract"/><text x="195" y="1185" text-anchor="middle" class="txt mono">GameState v42</text><text x="195" y="1208" text-anchor="middle" class="txt small">snapshot imutável</text>
  <rect x="335" y="1155" width="200" height="75" class="node contract"/><text x="435" y="1185" text-anchor="middle" class="txt mono">0..N DomainEvents</text><text x="435" y="1208" text-anchor="middle" class="txt small">DamageDealt etc.</text>
  <rect x="580" y="1155" width="180" height="75" class="node"/><text x="670" y="1185" text-anchor="middle" class="txt head">game-runtime</text><text x="670" y="1208" text-anchor="middle" class="txt small">projeta a saída</text>
  <path d="M670 1100V1155" class="flow"/><path d="M580 1192H535" class="flow"/><path d="M335 1192H295" class="flow"/>
  <text x="95" y="1270" class="txt body">Exemplo:</text><text x="95" y="1294" class="txt mono">{ type: "PlayCard", cardId: "c-7", targetId: "e-2" }</text><text x="95" y="1320" class="txt mono">→ hp 30→18 · [CardPlayed, DamageDealt, TurnEnded]</text>
  <text x="95" y="1355" class="txt small">Teste unitário executa o mesmo comando sem React, Phaser, API ou banco.</text>

  <!-- flow B -->
  <rect x="815" y="965" width="750" height="420" class="band"/>
  <circle cx="848" cy="1000" r="16" class="badge"/><text x="848" y="1006" text-anchor="middle" class="txt num">B</text><text x="877" y="1007" class="txt head">Salvar checkpoint autenticado</text>
  <rect x="840" y="1035" width="150" height="65" class="node"/><text x="915" y="1064" text-anchor="middle" class="txt head">React</text><text x="915" y="1086" text-anchor="middle" class="txt small">POST /runs/:id</text>
  <rect x="1030" y="1035" width="160" height="65" class="node"/><text x="1110" y="1064" text-anchor="middle" class="txt head">Fastify</text><text x="1110" y="1086" text-anchor="middle" class="txt small">valida HTTP</text>
  <rect x="1230" y="1035" width="180" height="65" class="node app"/><text x="1320" y="1064" text-anchor="middle" class="txt head">SaveCheckpoint</text><text x="1320" y="1086" text-anchor="middle" class="txt small">caso de uso</text>
  <path d="M990 1067H1030" class="flow"/><path d="M1190 1067H1230" class="flow"/>
  <rect x="840" y="1155" width="190" height="75" class="node"/><text x="935" y="1185" text-anchor="middle" class="txt head">Supabase Auth</text><text x="935" y="1208" text-anchor="middle" class="txt small">JWT → userId</text>
  <rect x="1080" y="1155" width="200" height="75" class="node contract"/><text x="1180" y="1185" text-anchor="middle" class="txt mono">RunRepository</text><text x="1180" y="1208" text-anchor="middle" class="txt small">porta</text>
  <rect x="1330" y="1155" width="200" height="75" class="node infra"/><text x="1430" y="1185" text-anchor="middle" class="txt head">Drizzle adapter</text><text x="1430" y="1208" text-anchor="middle" class="txt small">upsert SQL</text>
  <path d="M1110 1100V1130H935V1155" class="flow dash"/><path d="M1320 1100V1130H1180V1155" class="flow"/><path d="M1280 1192H1330" class="flow"/>
  <text x="840" y="1270" class="txt body">Cardinalidades:</text><text x="840" y="1294" class="txt mono">1 User → 0..N Runs → 0..N Checkpoints</text><text x="840" y="1318" class="txt mono">1 request → 1 JWT → 1 userId → 1 transação</text>
  <text x="840" y="1355" class="txt small">Em teste, FakeRunRepository substitui Drizzle sem mudar o caso de uso.</text>

  <!-- flow C -->
  <rect x="1590" y="965" width="740" height="420" class="band"/>
  <circle cx="1623" cy="1000" r="16" class="badge"/><text x="1623" y="1006" text-anchor="middle" class="txt num">C</text><text x="1652" y="1007" class="txt head">Interpretação assistida por IA</text>
  <rect x="1615" y="1035" width="160" height="65" class="node"/><text x="1695" y="1064" text-anchor="middle" class="txt head">Fastify</text><text x="1695" y="1086" text-anchor="middle" class="txt small">POST /profiles</text>
  <rect x="1815" y="1035" width="190" height="65" class="node app"/><text x="1910" y="1064" text-anchor="middle" class="txt head">AnalyzeProfile</text><text x="1910" y="1086" text-anchor="middle" class="txt small">orquestra</text>
  <rect x="2045" y="1035" width="180" height="65" class="node contract"/><text x="2135" y="1064" text-anchor="middle" class="txt mono">AiGateway</text><text x="2135" y="1086" text-anchor="middle" class="txt small">porta</text>
  <path d="M1775 1067H1815" class="flow"/><path d="M2005 1067H2045" class="flow"/>
  <rect x="1615" y="1155" width="190" height="75" class="node external"/><text x="1710" y="1185" text-anchor="middle" class="txt head">OpenAI adapter</text><text x="1710" y="1208" text-anchor="middle" class="txt small">prompt + schema</text>
  <rect x="1850" y="1155" width="190" height="75" class="node external"/><text x="1945" y="1185" text-anchor="middle" class="txt head">Responses API</text><text x="1945" y="1208" text-anchor="middle" class="txt small">saída estruturada</text>
  <rect x="2085" y="1155" width="190" height="75" class="node domain"/><text x="2180" y="1185" text-anchor="middle" class="txt head">Regra local</text><text x="2180" y="1208" text-anchor="middle" class="txt small">valida evidências</text>
  <path d="M2135 1100V1125H1710V1155" class="flow"/><path d="M1805 1192H1850" class="flow"/><path d="M2040 1192H2085" class="flow"/>
  <text x="1615" y="1270" class="txt body">Contrato de saída:</text><text x="1615" y="1294" class="txt mono">{ competencyId, evidence[], confidence, sourceRefs[] }</text><text x="1615" y="1318" class="txt mono">IA: 0..N sugestões · domínio: 1 veredito determinístico</text>
  <text x="1615" y="1355" class="txt small">Trocar modelo/provider afeta só o adapter; a IA nunca altera GameState diretamente.</text>

  <!-- 3. SWAPPABILITY & DEPLOY -->
  <rect x="45" y="1460" width="2310" height="390" class="panel"/>
  <text x="70" y="1498" class="txt section">3 · Evidências de desacoplamento e topologia provável de produção</text>

  <rect x="70" y="1525" width="1085" height="280" class="band"/>
  <text x="95" y="1558" class="txt head">O que pode ser trocado isoladamente</text>
  <line x1="95" y1="1575" x2="1130" y2="1575" class="divider"/>
  <text x="105" y="1605" class="txt body">Troca</text><text x="340" y="1605" class="txt body">Contrato preservado</text><text x="675" y="1605" class="txt body">Não deve mudar</text>
  <line x1="95" y1="1620" x2="1130" y2="1620" class="divider"/>
  <text x="105" y="1650" class="txt mono">Phaser 4 → outro renderer</text><text x="340" y="1650" class="txt mono">commands/events/snapshot</text><text x="675" y="1650" class="txt mono">game-core + casos de uso</text>
  <text x="105" y="1690" class="txt mono">Drizzle → SQL adapter</text><text x="340" y="1690" class="txt mono">RunRepository</text><text x="675" y="1690" class="txt mono">domínio + controllers</text>
  <text x="105" y="1730" class="txt mono">Supabase Auth → OIDC</text><text x="340" y="1730" class="txt mono">AuthGateway</text><text x="675" y="1730" class="txt mono">casos de uso</text>
  <text x="105" y="1770" class="txt mono">OpenAI → outro modelo</text><text x="340" y="1770" class="txt mono">AiGateway + schema</text><text x="675" y="1770" class="txt mono">rubrica + veredito</text>

  <rect x="1180" y="1525" width="1150" height="280" class="band"/>
  <text x="1205" y="1558" class="txt head">Produção e escala</text>
  <rect x="1210" y="1590" width="210" height="90" class="node contract"/><text x="1315" y="1625" text-anchor="middle" class="txt head">GitHub</text><text x="1315" y="1651" text-anchor="middle" class="txt small">1 monorepo</text>
  <rect x="1490" y="1590" width="240" height="90" class="node contract"/><text x="1610" y="1625" text-anchor="middle" class="txt head">Vercel CDN</text><text x="1610" y="1651" text-anchor="middle" class="txt small">1 web → N edge caches</text>
  <rect x="1490" y="1700" width="240" height="80" class="node app"/><text x="1610" y="1732" text-anchor="middle" class="txt head">Railway</text><text x="1610" y="1756" text-anchor="middle" class="txt small">1..N API replicas</text>
  <rect x="1800" y="1590" width="230" height="90" class="node infra"/><text x="1915" y="1625" text-anchor="middle" class="txt head">Supabase</text><text x="1915" y="1651" text-anchor="middle" class="txt small">Auth + Postgres</text>
  <rect x="2085" y="1590" width="215" height="90" class="node external"/><text x="2192" y="1625" text-anchor="middle" class="txt head">OpenAI</text><text x="2192" y="1651" text-anchor="middle" class="txt small">server-side only</text>
  <path d="M1420 1635H1490" class="line"/><path d="M1420 1650V1740H1490" class="line"/><path d="M1730 1740H1915V1680" class="line"/><path d="M1730 1725H2192V1680" class="line"/>
  <text x="1795" y="1720" class="txt cardinality">pool: N APIs → M conexões</text>
  <text x="1800" y="1760" class="txt mono">/health controla rollout · migrations rodam 1× por release</text>

  <!-- 4. SANDBOX -->
  <rect x="45" y="1875" width="2310" height="495" class="panel"/>
  <text x="70" y="1913" class="txt section">4 · Sandbox de desafios: arquitetura própria e fronteiras de segurança</text>
  <text x="70" y="1939" class="txt small">O Fastify agenda; o worker orquestra; somente o container descartável executa código não confiável. XSS e SQL injection continuam protegidos em suas próprias fronteiras.</text>

  <rect x="70" y="1965" width="1560" height="350" class="band"/>
  <text x="95" y="1997" class="txt head">Fluxo assíncrono de execução</text>
  <rect x="95" y="2030" width="180" height="75" class="node"/><text x="185" y="2060" text-anchor="middle" class="txt head">React</text><text x="185" y="2084" text-anchor="middle" class="txt small">envia solução</text>
  <rect x="325" y="2030" width="195" height="75" class="node"/><text x="422" y="2060" text-anchor="middle" class="txt head">Fastify</text><text x="422" y="2084" text-anchor="middle" class="txt small">auth + Zod + quota</text>
  <rect x="570" y="2030" width="210" height="75" class="node app"/><text x="675" y="2060" text-anchor="middle" class="txt head">SubmitChallenge</text><text x="675" y="2084" text-anchor="middle" class="txt small">cria executionId</text>
  <rect x="830" y="2030" width="180" height="75" class="node contract"/><text x="920" y="2060" text-anchor="middle" class="txt head">Job Queue</text><text x="920" y="2084" text-anchor="middle" class="txt small">QUEUED</text>
  <rect x="1060" y="2030" width="195" height="75" class="node infra"/><text x="1157" y="2060" text-anchor="middle" class="txt head">Worker confiável</text><text x="1157" y="2084" text-anchor="middle" class="txt small">orquestra e coleta</text>
  <rect x="1305" y="2010" width="285" height="115" class="node external"/><text x="1447" y="2045" text-anchor="middle" class="txt head">Container descartável</text><text x="1447" y="2071" text-anchor="middle" class="txt body">1 container = 1 execução</text><text x="1447" y="2095" text-anchor="middle" class="txt small">código + testes; depois destruído</text>
  <path d="M275 2067H325" class="flow"/><path d="M520 2067H570" class="flow"/><path d="M780 2067H830" class="flow"/><path d="M1010 2067H1060" class="flow"/><path d="M1255 2067H1305" class="flow"/>
  <text x="282" y="2053" class="txt cardinality">1:1</text><text x="788" y="2053" class="txt cardinality">1:1</text><text x="1260" y="2053" class="txt cardinality">1:1</text>

  <rect x="95" y="2160" width="240" height="105" class="node contract"/><text x="215" y="2192" text-anchor="middle" class="txt head">ExecutionResult</text><text x="215" y="2217" text-anchor="middle" class="txt mono">PASSED | FAILED</text><text x="215" y="2241" text-anchor="middle" class="txt small">tests + duration + output</text>
  <rect x="385" y="2160" width="250" height="105" class="node domain"/><text x="510" y="2192" text-anchor="middle" class="txt head">game-core</text><text x="510" y="2217" text-anchor="middle" class="txt mono">ResolveChallenge</text><text x="510" y="2241" text-anchor="middle" class="txt small">calcula recompensa localmente</text>
  <rect x="685" y="2160" width="245" height="105" class="node infra"/><text x="807" y="2192" text-anchor="middle" class="txt head">PostgreSQL</text><text x="807" y="2217" text-anchor="middle" class="txt body">status + resultado imutável</text><text x="807" y="2241" text-anchor="middle" class="txt small">sem código executável</text>
  <rect x="980" y="2160" width="280" height="105" class="node contract"/><text x="1120" y="2192" text-anchor="middle" class="txt head">Cardinalidades</text><text x="1120" y="2217" text-anchor="middle" class="txt mono">1 Submission → 1..N Attempts</text><text x="1120" y="2241" text-anchor="middle" class="txt mono">1 Attempt → 1 Result</text>
  <rect x="1310" y="2160" width="280" height="105" class="node external"/><text x="1450" y="2192" text-anchor="middle" class="txt head">Limites obrigatórios</text><text x="1450" y="2217" text-anchor="middle" class="txt body">CPU · memória · tempo · processos</text><text x="1450" y="2241" text-anchor="middle" class="txt small">sem rede, segredos ou disco persistente</text>
  <path d="M1447 2125V2140H215V2160" class="flow dash"/><path d="M335 2212H385" class="flow"/><path d="M685 2212H635" class="line"/><path d="M1060 2105V2140H807V2160" class="line dash"/>

  <rect x="1660" y="1965" width="670" height="350" class="band"/>
  <text x="1685" y="1997" class="txt head">Defesa em profundidade: ameaça × fronteira</text>
  <line x1="1685" y1="2015" x2="2305" y2="2015" class="divider"/>
  <text x="1695" y="2045" class="txt body">XSS</text><text x="1840" y="2045" class="txt mono">React + sanitização + CSP</text>
  <text x="1695" y="2085" class="txt body">SQL injection</text><text x="1840" y="2085" class="txt mono">Zod + Drizzle parametrizado + RLS</text>
  <text x="1695" y="2125" class="txt body">Código arbitrário</text><text x="1840" y="2125" class="txt mono">container isolado + timeout</text>
  <text x="1695" y="2165" class="txt body">Roubo de segredos</text><text x="1840" y="2165" class="txt mono">env vazio + rede bloqueada</text>
  <text x="1695" y="2205" class="txt body">DoS</text><text x="1840" y="2205" class="txt mono">rate limit + quota + CPU/memória</text>
  <text x="1695" y="2245" class="txt body">Prompt injection</text><text x="1840" y="2245" class="txt mono">schema + catálogo + regra determinística</text>
  <line x1="1685" y1="2270" x2="2305" y2="2270" class="divider"/>
  <text x="1685" y="2298" class="txt small">O sandbox protege execução; não substitui as defesas do browser, API ou banco.</text>

  <rect x="45" y="2395" width="2310" height="1" fill="#53687D"/>
  <text x="60" y="2420" class="txt small">Regra de ouro: frameworks conhecem contratos internos; o domínio não conhece frameworks. Código não confiável nunca compartilha processo, segredos, rede ou banco com a API.</text>
</svg>
